<?xml version="1.0" encoding="utf-8"?>
<svg viewBox="0 0 95 65" xmlns="http://www.w3.org/2000/svg">
  <path fill-rule="evenodd" clip-rule="evenodd" d="M 87.964 3.825 L 47.555 3.825 L 47.44 3.825 L 7.032 3.825 C 4.532 3.825 2.498 5.859 2.498 8.359 L 2.498 57.101 C 2.498 59.601 4.532 61.635 7.032 61.635 L 44.261 61.635 L 47.494 61.635 L 87.964 61.635 C 90.464 61.635 92.498 59.601 92.498 57.101 L 92.498 8.359 C 92.498 5.859 90.464 3.825 87.964 3.825 Z M 47.444 7.225 L 47.551 7.225 L 86.259 7.225 L 47.497 37.258 L 8.736 7.225 L 47.444 7.225 Z M 87.964 58.234 C 88.588 58.234 89.098 57.726 89.098 57.101 L 89.098 9.629 L 58.693 33.186 L 79.77 49.543 L 79.754 49.557 C 80.088 49.893 80.294 50.355 80.294 50.866 C 80.294 51.894 79.462 52.726 78.435 52.726 C 77.925 52.726 77.462 52.52 77.126 52.187 L 77.124 52.189 L 55.718 35.491 L 49.299 40.464 C 48.819 40.888 48.193 41.156 47.497 41.156 C 46.802 41.156 46.175 40.889 45.694 40.464 L 39.277 35.492 L 17.871 52.189 L 17.869 52.187 C 17.533 52.52 17.071 52.726 16.56 52.726 C 15.534 52.726 14.701 51.894 14.701 50.866 C 14.701 50.355 14.908 49.893 15.241 49.557 L 15.227 49.543 L 36.302 33.186 L 5.898 9.629 L 5.898 57.101 C 5.898 57.726 6.407 58.234 7.032 58.234 L 44.402 58.234 L 50.124 58.234 L 87.964 58.234 Z" style="fill: rgb(216, 254, 0);"/>
</svg>